<?xml version="1.0" encoding="UTF-8"?>
<svg width="101px" height="99px" viewBox="0 0 101 99" version="1.1" xmlns="http://www.w3.org/2000/svg" xmlns:xlink="http://www.w3.org/1999/xlink">
    <!-- Generator: Sketch 49.3 (51167) - http://www.bohemiancoding.com/sketch -->
    <title>2@1x</title>
    <desc>Created with Sketch.</desc>
    <defs></defs>
    <g id="Page-1" stroke="none" stroke-width="1" fill="none" fill-rule="evenodd">
        <g id="Group-5">
            <path d="M25.3594418,56.1079481 C25.3594418,34.7429539 41.4730103,17.1407027 62.2211089,14.7592474 C60.6434895,14.57851 59.0400863,14.4820294 57.4139584,14.4820294 C34.4008179,14.4820294 15.7451408,33.1185001 15.7451408,56.1079481 C15.7451408,79.0973961 34.4008179,97.7338668 57.4139584,97.7338668 C59.0400863,97.7338668 60.6434895,97.6373862 62.2211089,97.4566488 C41.4730103,95.0751935 25.3594418,77.4729424 25.3594418,56.1079481" id="Fill-3"></path>
            <g id="Group-3" transform="translate(15.090374, 14.221264)">
                <path d="M42.3234532,83.5126461 C19.3103127,83.5126461 0.654635584,64.8761754 0.654635584,41.8867274 C0.654635584,18.8972794 19.3103127,0.260808679 42.3234532,0.260808679 C65.3365937,0.260808679 83.9922708,18.8972794 83.9922708,41.8867274 C83.9922708,64.8761754 65.3365937,83.5126461 42.3234532,83.5126461 Z" id="Fill-1"></path>
                <path d="M84.1783246,41.6259187 C84.1783246,64.6153667 65.5226475,83.2518374 42.509507,83.2518374 C19.4963664,83.2518374 0.840689365,64.6153667 0.840689365,41.6259187 C0.840689365,18.6364707 19.4963664,0 42.509507,0 C65.5226475,0 84.1783246,18.6364707 84.1783246,41.6259187 L84.1783246,41.6259187 Z" id="Stroke-5" stroke="#CFD7E6" stroke-width="2.2763049"></path>
                <path d="M67.3859693,41.8867274 C67.3859693,64.8761754 56.165206,83.5126461 42.3236717,83.5126461 C28.4817003,83.5126461 17.260937,64.8761754 17.260937,41.8867274 C17.260937,18.8972794 28.4817003,0.260808679 42.3236717,0.260808679 C56.165206,0.260808679 67.3859693,18.8972794 67.3859693,41.8867274 L67.3859693,41.8867274 Z" id="Stroke-7" stroke="#CFD7E6" stroke-width="2.2763049"></path>
                <rect id="Rectangle-2" fill="#CFD7E6" x="0.840689365" y="41.0515805" width="83.3376352" height="2.2620259"></rect>
                <rect id="Rectangle-2-Copy" fill="#CFD7E6" x="6.72551492" y="62.8340517" width="70.7009475" height="2.2620259"></rect>
                <rect id="Rectangle-2-Copy-2" fill="#CFD7E6" x="7.56620429" y="18.5423165" width="70.7009475" height="2.2620259"></rect>
                <rect id="Rectangle-2-Copy-2" fill="#CFD7E6" transform="translate(42.509507, 42.182593) rotate(90.000000) translate(-42.509507, -42.182593) " x="0.840689365" y="41.0515805" width="83.3376352" height="2.2620259"></rect>
            </g>
            <g id="Group-4">
                <path d="M43.1344052,47.7017381 L45.9107531,45.016871 L39.9542566,38.8696165 L40.317415,38.5186193 C42.7419669,36.1738353 42.8044599,32.3098094 40.4576964,29.8881901 L40.4576964,29.8877536 C38.3879996,27.7525202 35.1374918,27.4539106 32.7352276,29.0198648 L29.6774429,25.8643819 C25.465068,21.5175165 18.8644134,20.8757677 13.9484464,24.0041837 C13.5350315,22.883961 13.2518466,21.5528781 13.4270891,20.1755194 C13.6753129,18.2236428 14.8307771,16.4708393 16.8602686,14.9664405 C20.2532428,12.4518332 23.516424,13.401796 27.2948443,14.500627 C32.4376213,15.9980407 38.8372497,17.8591121 43.606817,7.09606894 C43.9975072,6.21421013 43.5985137,5.18260994 42.7157461,4.79232193 C41.8338525,4.40247049 40.8007522,4.80018008 40.4096249,5.68203889 C36.8776803,13.6515105 33.4549892,12.6557085 28.2724439,11.1478173 C24.3926364,10.0184268 19.5636352,8.61356459 14.7770244,12.1619549 C11.9421166,14.2631363 10.3194848,16.8222731 9.9545784,19.7682054 C9.63686945,22.3343273 10.3605641,24.6882791 11.1707875,26.4113963 C6.98550744,31.2629294 7.12185571,38.5897792 11.667672,43.2806569 L14.7254568,46.4361398 C13.0805373,48.7839797 13.2736973,52.0394357 15.3429571,54.1751057 L15.3433941,54.1751057 C17.6901576,56.5967249 21.5581657,56.6595901 23.9827176,54.3152427 L24.345876,53.9638088 L30.3023725,60.1106267 L33.0791574,57.4257595 L27.1222239,51.2789416 L28.6229289,49.8273671 L34.5798624,55.9746215 L37.3562103,53.2893178 L31.3997138,47.1424999 L32.9004188,45.6909254 L38.8569153,51.8381798 L41.6337002,49.1528761 L35.6767667,43.0060582 L37.1779087,41.5549203 L43.1344052,47.7017381 Z" id="Fill-17" fill="#5D5D5D"></path>
                <path d="M24.3044471,55.4902977 C23.0183158,56.5480917 21.4162236,57.1247924 19.733721,57.1247924 C17.7654113,57.1247924 15.9273318,56.3463992 14.5581679,54.9341154 C12.3783437,52.6849389 11.9295306,49.303316 13.3546323,46.5905087 L10.8828829,44.0396666 C6.11156748,39.116537 5.73704676,31.5818829 9.89960208,26.2396521 C8.96526683,24.0092478 8.60953769,21.7386797 8.87043486,19.6344423 C9.27336147,16.380296 11.0419558,13.5710081 14.1259614,11.2851602 C16.3761449,9.61705007 18.8155552,8.80591459 21.5835999,8.80591459 C24.1335747,8.80591459 26.4947597,9.49350253 28.5780039,10.0998896 C30.4086542,10.6324974 31.9875846,11.0917625 33.3484452,11.0917625 C35.1502526,11.0917625 37.1316727,10.3827829 39.410699,5.24006173 C39.8656303,4.21413688 40.8856202,3.55099652 42.0096194,3.55099652 C42.4068648,3.55099652 42.7931849,3.63263394 43.1580914,3.79416253 C44.5901852,4.42761656 45.2395875,6.10707738 44.6059177,7.53769684 C41.8601607,13.7338464 38.1787575,16.7456998 33.3510673,16.7456998 C31.1008839,16.7456998 28.9166895,16.1096264 26.9894591,15.548642 C25.069221,14.9902769 23.2595474,14.463781 21.5993324,14.463781 C20.0798358,14.463781 18.7805941,14.902091 17.5110694,15.8433225 C15.7298016,17.1634914 14.7203,18.6674535 14.5105334,20.313299 C14.4279379,20.9642155 14.4620249,21.6548594 14.6114836,22.377809 C16.4849613,21.4474916 18.554221,20.9611596 20.6715523,20.9611596 C24.3953459,20.9611596 27.8726638,22.432816 30.4624069,25.1054594 L32.9341563,27.6563015 C33.9069487,27.1856858 34.9758842,26.9399004 36.0710405,26.9399004 C38.0380391,26.9399004 39.8748076,27.7174205 41.2426604,29.1288311 C42.5807963,30.5096823 43.3005578,32.328407 43.2690928,34.2501607 C43.241124,35.9750241 42.6113872,37.5972951 41.4830179,38.8781732 L47.4561209,45.042017 L43.178194,49.1780222 L34.6236512,57.4509056 L30.2771131,61.6541415 L24.3044471,55.4902977 Z" id="Fill-19" fill="#D1F0E3"></path>
                <path d="M42.0098379,2.45967441 L42.0098379,2.45967441 C40.4540692,2.45967441 39.041641,3.37776801 38.4119043,4.79834651 C36.1062201,10.0004404 34.3122789,10.0004404 33.3486637,10.0004404 C32.14338,10.0004404 30.6330607,9.56082066 28.884569,9.05222387 C26.7305285,8.4253183 24.2898071,7.71502905 21.5838184,7.71459248 C18.5727941,7.71459248 15.9205581,8.59601473 13.4750295,10.4086275 C10.1414892,12.8795784 8.22736922,15.9381442 7.78598541,19.500068 C7.52465122,21.6082344 7.82662768,23.8591572 8.66001277,26.0782108 C6.82848843,28.6574296 5.87710964,31.7635808 5.96057925,34.9631566 C6.05715928,38.652557 7.52639928,42.1455037 10.0977878,44.7989383 L12.0486169,46.8119339 C10.8363409,49.7949741 11.4547153,53.3001446 13.7730729,55.6929506 C15.3498182,57.3200238 17.4667125,58.2158526 19.7335025,58.2158526 C21.3281654,58.2158526 22.8594613,57.7666285 24.1774946,56.9284261 L28.7324882,61.6289081 L30.2524218,63.1974818 L31.8221749,61.679113 L34.5989599,58.9942458 L36.168713,57.475877 L38.8069646,54.9245984 L38.8069646,54.9245984 L40.3714736,53.4119049 L40.446203,53.3394353 L43.0840175,50.7881567 L44.6542077,49.2702244 L47.4305556,46.5849207 L49.0007458,45.0669885 L47.4808122,43.4984149 L42.9249446,38.7970596 C45.0929694,35.6180023 44.8089105,31.2397043 42.0277555,28.369734 C40.4523211,26.7439706 38.3367379,25.8485783 36.070822,25.8485783 C35.08186,25.8485783 34.1112526,26.0227672 33.197894,26.3593579 L31.247502,24.3463624 C28.4501774,21.4593662 24.6940448,19.8698375 20.6713338,19.8698375 C18.9149758,19.8698375 17.1887718,20.1797978 15.565266,20.7791998 C15.5709471,20.6683126 15.5809985,20.5587351 15.5945459,20.4509039 C15.7649812,19.1115262 16.6289573,17.8559688 18.1620013,16.7195933 C19.2484173,15.9145697 20.3086125,15.5552778 21.5995509,15.5552778 C23.104189,15.5552778 24.7617819,16.0372442 26.680709,16.5956092 C28.6813576,17.1779853 30.9450885,17.8371966 33.3512858,17.8371966 C38.6570689,17.8371966 42.6653584,14.6127366 45.6047125,7.97958669 C46.4822359,5.99846031 45.5832988,3.67332168 43.6005677,2.79626507 C43.0953799,2.57274442 42.5600381,2.45967441 42.0098379,2.45967441 M42.0098379,4.64249325 C42.2458253,4.64249325 42.4861828,4.69051526 42.715615,4.79223462 C43.5983826,5.18252263 43.9973761,6.21412281 43.6066859,7.09598162 C40.5952246,13.8910967 36.935235,15.6543777 33.3512858,15.6543777 C31.2584273,15.6543777 29.1909156,15.0527929 27.2951502,14.5009763 C25.2827022,13.9155442 23.4166538,13.3724589 21.5995509,13.3724589 C20.0040139,13.3724589 18.4464972,13.7911236 16.8601375,14.9663532 C14.830646,16.470752 13.6756188,18.2235555 13.426958,20.1758687 C13.2517155,21.5527908 13.5349004,22.8843103 13.9483153,24.0040964 C15.9952874,22.7013901 18.3341847,22.0526563 20.6713338,22.0526563 C23.9471884,22.0526563 27.2191098,23.3274225 29.6773118,25.8642946 L32.7350965,29.0197775 C33.7472202,28.3601296 34.9096766,28.0313971 36.070822,28.0313971 C37.6663589,28.0313971 39.2601478,28.6521908 40.4575653,29.8881028 L40.4575653,29.8881028 C42.8047658,32.309722 42.7418358,36.173748 40.3172839,38.518532 L39.9541255,38.8699658 L45.911059,45.0167836 L43.1342741,47.7016508 L37.1777776,41.554833 L35.6770726,43.0059709 L41.6335691,49.1532253 L38.8572212,51.8380925 L32.9002877,45.6912747 L31.3995827,47.1424126 L37.3565162,53.2892305 L34.5797313,55.9745342 L28.6232348,49.8272798 L27.1225298,51.2788543 L33.0790263,57.4256722 L30.3026784,60.1109759 L24.3457449,53.9637215 L23.9825865,54.3151553 C22.7960944,55.4624449 21.2643614,56.0330338 19.7335025,56.0330338 C18.1366545,56.0330338 16.5415545,55.4118035 15.343263,54.1750184 L15.343263,54.1750184 C13.2735662,52.0393484 13.0804062,48.7838924 14.7253257,46.4360525 L11.6675409,43.2805695 C7.12172461,38.5896919 6.98537634,31.2628421 11.1706564,26.411309 C10.36087,24.6881918 9.63673835,22.3346765 9.9544473,19.7681181 C10.3197907,16.8221858 11.9419855,14.263049 14.7768933,12.1618676 C17.0729632,10.4597055 19.3777733,9.89741132 21.5833814,9.89741132 C23.9769053,9.89784789 26.2533096,10.5601151 28.2727498,11.14773 C30.1702632,11.6999831 31.8313522,12.1832592 33.3486637,12.1832592 C35.975553,12.1832592 38.1706727,10.7334309 40.4099308,5.68195158 C40.6987969,5.03016187 41.3390219,4.64249325 42.0098379,4.64249325" id="Fill-21" fill="#FFFFFF"></path>
                <path d="M14.2543123,29.8942584 C13.7486875,29.8942584 13.2465588,29.6759765 12.9008809,29.2546925 C12.7549184,29.0761379 9.32873111,24.8301187 9.95584574,19.7681618 C10.3207522,16.8222295 11.943384,14.2630927 14.7778547,12.1614747 C19.5662136,8.61352094 24.3939038,10.0188197 28.2741483,11.1477736 C33.4558195,12.6547917 36.8789477,13.6514668 40.4113293,5.6824318 C40.8020195,4.80057299 41.8351198,4.40242683 42.7170134,4.79227828 C43.5997811,5.18300285 43.9987746,6.21416647 43.6076473,7.09602528 C38.83808,17.8599415 32.4375776,15.9975605 27.2965487,14.5010199 C23.5172543,13.4013158 20.2540732,12.4517896 16.8615359,14.9663969 C14.8246152,16.476471 13.668277,18.2362595 13.4257344,20.197304 C12.9878467,23.733907 15.5793378,27.009445 15.6059956,27.0413142 C16.2173778,27.7878382 16.1076873,28.8879789 15.360831,29.4991682 C15.0361298,29.7650355 14.6441285,29.8942584 14.2543123,29.8942584" id="Fill-23" fill="#D1F0E3"></path>
                <path d="M43.1357163,47.7017818 L45.9120642,45.0169146 L39.9555677,38.8696602 L40.3187261,38.5186629 C42.743278,36.1738789 42.8057709,32.309853 40.4590075,29.8877972 C38.3893107,27.7525638 35.1388029,27.4539542 32.7365387,29.0199085 L29.6787539,25.8644255 C24.8641742,20.8963299 16.9297538,20.7675436 11.9565381,25.5771666 L11.9565381,25.5771666 C6.98332237,30.3863531 6.85484035,38.3126048 11.6689831,43.2807005 L14.7267678,46.4361834 C13.0818483,48.7840234 13.2750084,52.0394794 15.3442681,54.1751493 C17.6914686,56.5967686 21.5594767,56.6596337 23.9840286,54.3152863 L24.347187,53.9638525 L30.3036835,60.1106703 L33.0804684,57.4258032 L27.1235349,51.2789853 L28.6242399,49.8274108 L34.5811734,55.9746652 L37.3575213,53.2893615 L31.4010249,47.1425436 L32.9017298,45.6909691 L38.8582263,51.8382235 L41.6350113,49.1529198 L35.6780778,43.0061019 L37.1792198,41.5549639 L43.1357163,47.7017818 Z" id="Fill-25" fill="#D1F0E3"></path>
                <rect id="Rectangle-3" fill="#CFD7E6" x="13.1147541" y="0" width="2.27049179" height="6.43353486" rx="1.13524589"></rect>
                <rect id="Rectangle-3-Copy" fill="#CFD7E6" transform="translate(7.157766, 6.366332) rotate(-44.000000) translate(-7.157766, -6.366332) " x="6.02252026" y="3.14956458" width="2.27049179" height="6.43353486" rx="1.13524589"></rect>
                <rect id="Rectangle-3-Copy-2" fill="#CFD7E6" transform="translate(3.881514, 13.599079) rotate(-90.000000) translate(-3.881514, -13.599079) " x="2.74626763" y="10.3823116" width="2.27049179" height="6.43353486" rx="1.13524589"></rect>
            </g>
        </g>
    </g>
</svg>